<svg width="60" height="60" viewBox="0 0 60 60" fill="none" xmlns="http://www.w3.org/2000/svg">
<path fillRule="evenodd" clipRule="evenodd" d="M0.833496 29.998C0.833496 13.9009 13.9002 0.831299 30.0002 0.831299C46.1293 0.831299 59.1668 13.9009 59.1668 29.998C59.1668 46.1009 46.1293 59.1646 30.0002 59.1646C13.9002 59.1646 0.833496 46.1009 0.833496 29.998ZM27.4335 18.9438C27.4335 17.5467 28.6002 16.3771 30.0002 16.3771C31.4002 16.3771 32.5377 17.5467 32.5377 18.9438V31.8355C32.5377 33.2384 31.4002 34.373 30.0002 34.373C28.6002 34.373 27.4335 33.2384 27.4335 31.8355V18.9438ZM30.0293 43.6509C28.6002 43.6509 27.4627 42.4842 27.4627 41.0842C27.4627 39.6842 28.6002 38.5467 30.0002 38.5467C31.4293 38.5467 32.5668 39.6842 32.5668 41.0842C32.5668 42.4842 31.4293 43.6509 30.0293 43.6509Z" fill="#ED5454"/>
</svg>
