<svg width="12" height="14" viewBox="0 0 12 14" fill="none" xmlns="http://www.w3.org/2000/svg">
<path fillRule="evenodd" clipRule="evenodd" d="M11.5247 2.49523C11.7841 2.49523 12 2.71056 12 2.98456V3.23789C12 3.50522 11.7841 3.72722 11.5247 3.72722H0.475902C0.215907 3.72722 0 3.50522 0 3.23789V2.98456C0 2.71056 0.215907 2.49523 0.475902 2.49523H2.41971C2.81457 2.49523 3.1582 2.21457 3.24703 1.81857L3.34882 1.36391C3.50702 0.744581 4.02766 0.333252 4.62351 0.333252H7.37649C7.96585 0.333252 8.49233 0.744581 8.64469 1.33124L8.75362 1.8179C8.8418 2.21457 9.18543 2.49523 9.58094 2.49523H11.5247ZM10.5372 11.7559C10.7402 9.86462 11.0955 5.37133 11.0955 5.326C11.1084 5.18867 11.0637 5.05867 10.9749 4.95401C10.8796 4.85601 10.759 4.79801 10.626 4.79801H1.37901C1.24545 4.79801 1.11837 4.85601 1.03019 4.95401C0.940717 5.05867 0.896628 5.18867 0.903112 5.326C0.904303 5.33433 0.917053 5.49261 0.938368 5.75722C1.03306 6.93272 1.29678 10.2067 1.46719 11.7559C1.58779 12.8973 2.33665 13.6146 3.42137 13.6406C4.25842 13.6599 5.12075 13.6666 6.00253 13.6666C6.83309 13.6666 7.67662 13.6599 8.53959 13.6406C9.66192 13.6213 10.4101 12.9166 10.5372 11.7559Z" fill="#EC5050"/>
</svg>
