<svg width="52" height="32" viewBox="0 0 52 32" fill="none" xmlns="http://www.w3.org/2000/svg">
<circle cx="16" cy="16" r="16" fill="#FFDF94"/>
<path d="M8.25817 21V11.5455H11.4528C12.1914 11.5455 12.7977 11.6716 13.2717 11.924C13.7456 12.1733 14.0965 12.5165 14.3242 12.9535C14.552 13.3905 14.6658 13.8875 14.6658 14.4446C14.6658 15.0017 14.552 15.4956 14.3242 15.9265C14.0965 16.3574 13.7472 16.6959 13.2763 16.9421C12.8054 17.1853 12.2037 17.3068 11.4712 17.3068H8.88601V16.2727H11.4343C11.939 16.2727 12.3453 16.1989 12.6531 16.0511C12.9639 15.9034 13.1886 15.6941 13.3271 15.4233C13.4686 15.1494 13.5394 14.8232 13.5394 14.4446C13.5394 14.0661 13.4686 13.7352 13.3271 13.4521C13.1855 13.1689 12.9593 12.9504 12.6484 12.7965C12.3376 12.6396 11.9267 12.5611 11.4158 12.5611H9.40305V21H8.25817ZM12.7085 16.7528L15.0352 21H13.7056L11.4158 16.7528H12.7085ZM24.1816 14.5H23.0367C22.969 14.1707 22.8505 13.8814 22.6812 13.6321C22.515 13.3828 22.3119 13.1735 22.0718 13.0043C21.8348 12.8319 21.5717 12.7027 21.2824 12.6165C20.9931 12.5303 20.6915 12.4872 20.3776 12.4872C19.8051 12.4872 19.2865 12.6319 18.8218 12.9212C18.3602 13.2105 17.9924 13.6367 17.7185 14.1999C17.4477 14.7631 17.3122 15.4541 17.3122 16.2727C17.3122 17.0914 17.4477 17.7823 17.7185 18.3455C17.9924 18.9087 18.3602 19.335 18.8218 19.6243C19.2865 19.9136 19.8051 20.0582 20.3776 20.0582C20.6915 20.0582 20.9931 20.0152 21.2824 19.929C21.5717 19.8428 21.8348 19.7151 22.0718 19.5458C22.3119 19.3735 22.515 19.1626 22.6812 18.9134C22.8505 18.661 22.969 18.3717 23.0367 18.0455H24.1816C24.0954 18.5286 23.9384 18.9611 23.7107 19.3427C23.4829 19.7243 23.1998 20.049 22.8612 20.3168C22.5227 20.5814 22.1426 20.783 21.721 20.9215C21.3024 21.06 20.8546 21.1293 20.3776 21.1293C19.5712 21.1293 18.8541 20.9323 18.2263 20.5384C17.5985 20.1444 17.1045 19.5843 16.7444 18.858C16.3843 18.1316 16.2043 17.2699 16.2043 16.2727C16.2043 15.2756 16.3843 14.4138 16.7444 13.6875C17.1045 12.9612 17.5985 12.401 18.2263 12.0071C18.8541 11.6132 19.5712 11.4162 20.3776 11.4162C20.8546 11.4162 21.3024 11.4854 21.721 11.6239C22.1426 11.7624 22.5227 11.9656 22.8612 12.2333C23.1998 12.498 23.4829 12.8211 23.7107 13.2028C23.9384 13.5813 24.0954 14.0137 24.1816 14.5Z" fill="#0A0A0A"/>
<path d="M49.0832 14.9583L44.9998 19.0416L40.9165 14.9583" stroke="#0A0A0A" stroke-width="1.5" stroke-linecap="round" stroke-linejoin="round"/>
</svg>
