<svg width="20" height="20" viewBox="0 0 20 20" fill="none" xmlns="http://www.w3.org/2000/svg">
<path d="M15.5 3H12.5V9H14C14.1787 9 14.3437 9.09531 14.433 9.25C14.5223 9.40469 14.5223 9.59531 14.433 9.75C14.3437 9.90469 14.1787 10 14 10H12C11.8674 10 11.7402 9.94732 11.6464 9.85357C11.5527 9.75982 11.5 9.63259 11.5 9.5V3H4.5C4.10211 3 3.72066 3.15803 3.43929 3.43929C3.15803 3.72065 3 4.10211 3 4.5V8H8V7C8 6.82132 8.09531 6.65626 8.25 6.56697C8.40469 6.47769 8.59531 6.47769 8.75 6.56697C8.90469 6.65626 9 6.82132 9 7V10C9 10.1787 8.90469 10.3437 8.75 10.433C8.59531 10.5223 8.40469 10.5223 8.25 10.433C8.09531 10.3437 8 10.1787 8 10V9H3V15.5C3 15.8979 3.15803 16.2793 3.43929 16.5607C3.72065 16.842 4.10211 17 4.5 17H8V13C8 12.8674 8.05268 12.7402 8.14643 12.6464C8.24018 12.5527 8.36741 12.5 8.5 12.5H14C14.1787 12.5 14.3437 12.5953 14.433 12.75C14.5223 12.9047 14.5223 13.0953 14.433 13.25C14.3437 13.4047 14.1787 13.5 14 13.5H9V17H15.5C15.8979 17 16.2793 16.842 16.5607 16.5607C16.842 16.2794 17 15.8979 17 15.5V4.5C17 4.10211 16.842 3.72066 16.5607 3.43929C16.2794 3.15803 15.8979 3 15.5 3Z" fill="white"/>
</svg>
