<svg width="169" height="22" viewBox="0 0 169 22" fill="none" xmlns="http://www.w3.org/2000/svg">
<path d="M14.5078 6.60156H11.0859C11.0234 6.15885 10.8958 5.76562 10.7031 5.42187C10.5104 5.07292 10.263 4.77604 9.96094 4.53125C9.65885 4.28646 9.3099 4.09896 8.91406 3.96875C8.52344 3.83854 8.09896 3.77344 7.64063 3.77344C6.8125 3.77344 6.09115 3.97917 5.47656 4.39062C4.86198 4.79687 4.38542 5.39062 4.04688 6.17188C3.70833 6.94792 3.53906 7.89062 3.53906 9C3.53906 10.1406 3.70833 11.099 4.04688 11.875C4.39063 12.651 4.86979 13.237 5.48437 13.6328C6.09896 14.0286 6.8099 14.2266 7.61719 14.2266C8.07031 14.2266 8.48958 14.1667 8.875 14.0469C9.26563 13.9271 9.61198 13.7526 9.91406 13.5234C10.2161 13.2891 10.4661 13.0052 10.6641 12.6719C10.8672 12.3385 11.0078 11.9583 11.0859 11.5312L14.5078 11.5469C14.4193 12.2812 14.1979 12.9896 13.8438 13.6719C13.4948 14.349 13.0234 14.9557 12.4297 15.4922C11.8411 16.0234 11.138 16.4453 10.3203 16.7578C9.50781 17.0651 8.58854 17.2187 7.5625 17.2187C6.13542 17.2187 4.85938 16.8958 3.73438 16.25C2.61458 15.6042 1.72917 14.6693 1.07812 13.4453C0.432292 12.2214 0.109375 10.7396 0.109375 9C0.109375 7.25521 0.4375 5.77083 1.09375 4.54688C1.75 3.32292 2.64063 2.39062 3.76563 1.75C4.89063 1.10417 6.15625 0.781249 7.5625 0.781249C8.48958 0.781249 9.34896 0.911458 10.1406 1.17187C10.9375 1.43229 11.6432 1.8125 12.2578 2.3125C12.8724 2.80729 13.3724 3.41406 13.7578 4.13281C14.1484 4.85156 14.3984 5.67448 14.5078 6.60156ZM22.3398 17.2344C21.1055 17.2344 20.043 16.9844 19.1523 16.4844C18.2669 15.9792 17.5846 15.2656 17.1055 14.3437C16.6263 13.4167 16.3867 12.3203 16.3867 11.0547C16.3867 9.82031 16.6263 8.73698 17.1055 7.80469C17.5846 6.8724 18.2591 6.14583 19.1289 5.625C20.0039 5.10417 21.0299 4.84375 22.207 4.84375C22.9987 4.84375 23.7357 4.97135 24.418 5.22656C25.1055 5.47656 25.7044 5.85417 26.2148 6.35937C26.7305 6.86458 27.1315 7.5 27.418 8.26562C27.7044 9.02604 27.8477 9.91667 27.8477 10.9375V11.8516H17.7148V9.78906H24.7148C24.7148 9.3099 24.6107 8.88542 24.4023 8.51563C24.194 8.14583 23.9049 7.85677 23.5352 7.64844C23.1706 7.4349 22.7461 7.32812 22.2617 7.32812C21.7565 7.32812 21.3086 7.44531 20.918 7.67969C20.5326 7.90885 20.2305 8.21875 20.0117 8.60937C19.793 8.99479 19.681 9.42448 19.6758 9.89844V11.8594C19.6758 12.4531 19.7852 12.9661 20.0039 13.3984C20.2279 13.8307 20.543 14.1641 20.9492 14.3984C21.3555 14.6328 21.8372 14.75 22.3945 14.75C22.7643 14.75 23.1029 14.6979 23.4102 14.5938C23.7174 14.4896 23.9805 14.3333 24.1992 14.125C24.418 13.9167 24.5846 13.6615 24.6992 13.3594L27.7773 13.5625C27.6211 14.3021 27.3008 14.9479 26.8164 15.5C26.3372 16.0469 25.7174 16.474 24.957 16.7813C24.2018 17.0833 23.3294 17.2344 22.3398 17.2344ZM33.3477 10.0625V17H30.0195V5H33.1914V7.11719H33.332C33.5977 6.41927 34.043 5.86719 34.668 5.46094C35.293 5.04948 36.0508 4.84375 36.9414 4.84375C37.7747 4.84375 38.5013 5.02604 39.1211 5.39062C39.7409 5.75521 40.2227 6.27604 40.5664 6.95312C40.9102 7.625 41.082 8.42708 41.082 9.35937V17H37.7539V9.95312C37.7591 9.21875 37.5716 8.64583 37.1914 8.23438C36.8112 7.81771 36.2878 7.60937 35.6211 7.60937C35.1732 7.60937 34.7773 7.70573 34.4336 7.89844C34.0951 8.09115 33.8294 8.3724 33.6367 8.74219C33.4492 9.10677 33.3529 9.54688 33.3477 10.0625ZM48.127 17.1953C47.2155 17.1953 46.39 16.9609 45.6504 16.4922C44.916 16.0182 44.3327 15.3229 43.9004 14.4062C43.4733 13.4844 43.2598 12.3542 43.2598 11.0156C43.2598 9.64062 43.4811 8.4974 43.9238 7.58594C44.3665 6.66927 44.9551 5.98437 45.6895 5.53125C46.429 5.07292 47.2389 4.84375 48.1191 4.84375C48.791 4.84375 49.3509 4.95833 49.7988 5.1875C50.252 5.41146 50.6165 5.69271 50.8926 6.03125C51.1738 6.36458 51.3874 6.69271 51.5332 7.01562H51.6348V1H54.9551V17H51.6738V15.0781H51.5332C51.377 15.4115 51.1556 15.7422 50.8691 16.0703C50.5879 16.3932 50.2207 16.6615 49.7676 16.875C49.3197 17.0885 48.7728 17.1953 48.127 17.1953ZM49.1816 14.5469C49.7181 14.5469 50.1712 14.401 50.541 14.1094C50.916 13.8125 51.2025 13.3984 51.4004 12.8672C51.6035 12.3359 51.7051 11.7135 51.7051 11C51.7051 10.2865 51.6061 9.66667 51.4082 9.14062C51.2103 8.61458 50.9238 8.20833 50.5488 7.92187C50.1738 7.63542 49.7181 7.49219 49.1816 7.49219C48.6348 7.49219 48.1738 7.64062 47.7988 7.9375C47.4238 8.23437 47.14 8.64583 46.9473 9.17187C46.7546 9.69792 46.6582 10.3073 46.6582 11C46.6582 11.6979 46.7546 12.3151 46.9473 12.8516C47.1452 13.3828 47.429 13.7995 47.7988 14.1016C48.1738 14.3984 48.6348 14.5469 49.1816 14.5469ZM57.6914 17V5H60.918V7.09375H61.043C61.2617 6.34896 61.6289 5.78646 62.1445 5.40625C62.6602 5.02083 63.2539 4.82812 63.9258 4.82812C64.0924 4.82812 64.2721 4.83854 64.4648 4.85937C64.6576 4.88021 64.8268 4.90885 64.9727 4.94531V7.89844C64.8164 7.85156 64.6003 7.8099 64.3242 7.77344C64.0482 7.73698 63.7956 7.71875 63.5664 7.71875C63.0768 7.71875 62.6393 7.82552 62.2539 8.03906C61.8737 8.2474 61.5716 8.53906 61.3477 8.91406C61.1289 9.28906 61.0195 9.72135 61.0195 10.2109V17H57.6914ZM71.5566 17.2344C70.3431 17.2344 69.2936 16.9766 68.4082 16.4609C67.528 15.9401 66.8483 15.2161 66.3691 14.2891C65.89 13.3568 65.6504 12.276 65.6504 11.0469C65.6504 9.80729 65.89 8.72396 66.3691 7.79687C66.8483 6.86458 67.528 6.14062 68.4082 5.625C69.2936 5.10417 70.3431 4.84375 71.5566 4.84375C72.7702 4.84375 73.8171 5.10417 74.6973 5.625C75.5827 6.14062 76.265 6.86458 76.7441 7.79687C77.2233 8.72396 77.4629 9.80729 77.4629 11.0469C77.4629 12.276 77.2233 13.3568 76.7441 14.2891C76.265 15.2161 75.5827 15.9401 74.6973 16.4609C73.8171 16.9766 72.7702 17.2344 71.5566 17.2344ZM71.5723 14.6562C72.1243 14.6562 72.5853 14.5 72.9551 14.1875C73.3249 13.8698 73.6035 13.4375 73.791 12.8906C73.9837 12.3437 74.0801 11.7214 74.0801 11.0234C74.0801 10.3255 73.9837 9.70313 73.791 9.15625C73.6035 8.60937 73.3249 8.17708 72.9551 7.85937C72.5853 7.54167 72.1243 7.38281 71.5723 7.38281C71.015 7.38281 70.5462 7.54167 70.166 7.85937C69.791 8.17708 69.5072 8.60937 69.3145 9.15625C69.127 9.70313 69.0332 10.3255 69.0332 11.0234C69.0332 11.7214 69.127 12.3437 69.3145 12.8906C69.5072 13.4375 69.791 13.8698 70.166 14.1875C70.5462 14.5 71.015 14.6562 71.5723 14.6562ZM82.9551 1V17H79.627V1H82.9551ZM90.7754 17V1H97.0879C98.3014 1 99.3353 1.23177 100.189 1.69531C101.044 2.15365 101.695 2.79167 102.143 3.60937C102.596 4.42187 102.822 5.35937 102.822 6.42187C102.822 7.48437 102.593 8.42187 102.135 9.23437C101.676 10.0469 101.012 10.6797 100.143 11.1328C99.278 11.5859 98.2311 11.8125 97.002 11.8125H92.9785V9.10156H96.4551C97.1061 9.10156 97.6426 8.98958 98.0645 8.76562C98.4915 8.53646 98.8092 8.22135 99.0176 7.82031C99.2311 7.41406 99.3379 6.94792 99.3379 6.42187C99.3379 5.89062 99.2311 5.42708 99.0176 5.03125C98.8092 4.63021 98.4915 4.32031 98.0645 4.10156C97.6374 3.8776 97.0957 3.76562 96.4395 3.76562H94.1582V17H90.7754ZM110.232 17.2344C108.998 17.2344 107.936 16.9844 107.045 16.4844C106.16 15.9792 105.477 15.2656 104.998 14.3437C104.519 13.4167 104.279 12.3203 104.279 11.0547C104.279 9.82031 104.519 8.73698 104.998 7.80469C105.477 6.8724 106.152 6.14583 107.021 5.625C107.896 5.10417 108.923 4.84375 110.1 4.84375C110.891 4.84375 111.628 4.97135 112.311 5.22656C112.998 5.47656 113.597 5.85417 114.107 6.35937C114.623 6.86458 115.024 7.5 115.311 8.26562C115.597 9.02604 115.74 9.91667 115.74 10.9375V11.8516H105.607V9.78906H112.607C112.607 9.3099 112.503 8.88542 112.295 8.51563C112.087 8.14583 111.798 7.85677 111.428 7.64844C111.063 7.4349 110.639 7.32812 110.154 7.32812C109.649 7.32812 109.201 7.44531 108.811 7.67969C108.425 7.90885 108.123 8.21875 107.904 8.60937C107.686 8.99479 107.574 9.42448 107.568 9.89844V11.8594C107.568 12.4531 107.678 12.9661 107.896 13.3984C108.12 13.8307 108.436 14.1641 108.842 14.3984C109.248 14.6328 109.73 14.75 110.287 14.75C110.657 14.75 110.995 14.6979 111.303 14.5938C111.61 14.4896 111.873 14.3333 112.092 14.125C112.311 13.9167 112.477 13.6615 112.592 13.3594L115.67 13.5625C115.514 14.3021 115.193 14.9479 114.709 15.5C114.23 16.0469 113.61 16.474 112.85 16.7813C112.094 17.0833 111.222 17.2344 110.232 17.2344ZM123.334 17.2344C122.12 17.2344 121.071 16.9766 120.186 16.4609C119.305 15.9401 118.626 15.2161 118.146 14.2891C117.667 13.3568 117.428 12.276 117.428 11.0469C117.428 9.80729 117.667 8.72396 118.146 7.79687C118.626 6.86458 119.305 6.14062 120.186 5.625C121.071 5.10417 122.12 4.84375 123.334 4.84375C124.548 4.84375 125.594 5.10417 126.475 5.625C127.36 6.14062 128.042 6.86458 128.521 7.79687C129.001 8.72396 129.24 9.80729 129.24 11.0469C129.24 12.276 129.001 13.3568 128.521 14.2891C128.042 15.2161 127.36 15.9401 126.475 16.4609C125.594 16.9766 124.548 17.2344 123.334 17.2344ZM123.35 14.6562C123.902 14.6562 124.363 14.5 124.732 14.1875C125.102 13.8698 125.381 13.4375 125.568 12.8906C125.761 12.3437 125.857 11.7214 125.857 11.0234C125.857 10.3255 125.761 9.70313 125.568 9.15625C125.381 8.60937 125.102 8.17708 124.732 7.85937C124.363 7.54167 123.902 7.38281 123.35 7.38281C122.792 7.38281 122.324 7.54167 121.943 7.85937C121.568 8.17708 121.285 8.60937 121.092 9.15625C120.904 9.70313 120.811 10.3255 120.811 11.0234C120.811 11.7214 120.904 12.3437 121.092 12.8906C121.285 13.4375 121.568 13.8698 121.943 14.1875C122.324 14.5 122.792 14.6562 123.35 14.6562ZM131.404 21.5V5H134.686V7.01562H134.834C134.98 6.69271 135.191 6.36458 135.467 6.03125C135.748 5.69271 136.113 5.41146 136.561 5.1875C137.014 4.95833 137.576 4.84375 138.248 4.84375C139.123 4.84375 139.93 5.07292 140.67 5.53125C141.41 5.98437 142.001 6.66927 142.443 7.58594C142.886 8.4974 143.107 9.64062 143.107 11.0156C143.107 12.3542 142.891 13.4844 142.459 14.4062C142.032 15.3229 141.449 16.0182 140.709 16.4922C139.975 16.9609 139.152 17.1953 138.24 17.1953C137.594 17.1953 137.045 17.0885 136.592 16.875C136.144 16.6615 135.777 16.3932 135.49 16.0703C135.204 15.7422 134.985 15.4115 134.834 15.0781H134.732V21.5H131.404ZM134.662 11C134.662 11.7135 134.761 12.3359 134.959 12.8672C135.157 13.3984 135.443 13.8125 135.818 14.1094C136.193 14.401 136.649 14.5469 137.186 14.5469C137.727 14.5469 138.186 14.3984 138.561 14.1016C138.936 13.7995 139.219 13.3828 139.412 12.8516C139.61 12.3151 139.709 11.6979 139.709 11C139.709 10.3073 139.613 9.69792 139.42 9.17187C139.227 8.64583 138.943 8.23437 138.568 7.9375C138.193 7.64062 137.732 7.49219 137.186 7.49219C136.644 7.49219 136.186 7.63542 135.811 7.92187C135.441 8.20833 135.157 8.61458 134.959 9.14062C134.761 9.66667 134.662 10.2865 134.662 11ZM148.654 1V17H145.326V1H148.654ZM156.789 17.2344C155.555 17.2344 154.492 16.9844 153.602 16.4844C152.716 15.9792 152.034 15.2656 151.555 14.3437C151.076 13.4167 150.836 12.3203 150.836 11.0547C150.836 9.82031 151.076 8.73698 151.555 7.80469C152.034 6.8724 152.708 6.14583 153.578 5.625C154.453 5.10417 155.479 4.84375 156.656 4.84375C157.448 4.84375 158.185 4.97135 158.867 5.22656C159.555 5.47656 160.154 5.85417 160.664 6.35937C161.18 6.86458 161.581 7.5 161.867 8.26562C162.154 9.02604 162.297 9.91667 162.297 10.9375V11.8516H152.164V9.78906H159.164C159.164 9.3099 159.06 8.88542 158.852 8.51563C158.643 8.14583 158.354 7.85677 157.984 7.64844C157.62 7.4349 157.195 7.32812 156.711 7.32812C156.206 7.32812 155.758 7.44531 155.367 7.67969C154.982 7.90885 154.68 8.21875 154.461 8.60937C154.242 8.99479 154.13 9.42448 154.125 9.89844V11.8594C154.125 12.4531 154.234 12.9661 154.453 13.3984C154.677 13.8307 154.992 14.1641 155.398 14.3984C155.805 14.6328 156.286 14.75 156.844 14.75C157.214 14.75 157.552 14.6979 157.859 14.5938C158.167 14.4896 158.43 14.3333 158.648 14.125C158.867 13.9167 159.034 13.6615 159.148 13.3594L162.227 13.5625C162.07 14.3021 161.75 14.9479 161.266 15.5C160.786 16.0469 160.167 16.474 159.406 16.7813C158.651 17.0833 157.779 17.2344 156.789 17.2344Z" fill="white"/>
<path d="M166.414 17.2031C165.898 17.2031 165.456 17.0208 165.086 16.6562C164.721 16.2865 164.539 15.8437 164.539 15.3281C164.539 14.8177 164.721 14.3802 165.086 14.0156C165.456 13.651 165.898 13.4687 166.414 13.4687C166.914 13.4687 167.352 13.651 167.727 14.0156C168.102 14.3802 168.289 14.8177 168.289 15.3281C168.289 15.6719 168.201 15.987 168.023 16.2734C167.852 16.5547 167.625 16.7812 167.344 16.9531C167.063 17.1198 166.753 17.2031 166.414 17.2031Z" fill="#F7B314"/>
</svg>
