<svg width="16" height="18" viewBox="0 0 16 18" fill="none" xmlns="http://www.w3.org/2000/svg">
<path fillRule="evenodd" clipRule="evenodd" d="M11.6757 1.30726L11.6766 1.93195C13.9721 2.11186 15.4885 3.67608 15.4909 6.07488L15.5 13.0964C15.5033 15.7117 13.8602 17.3209 11.2265 17.3251L4.79324 17.3334C2.176 17.3367 0.512354 15.6892 0.509063 13.0664L0.500012 6.12735C0.496721 3.71273 1.95961 2.15267 4.25515 1.94195L4.25433 1.31726C4.2535 0.950777 4.52502 0.675081 4.88704 0.675081C5.24906 0.674248 5.52057 0.949111 5.5214 1.31559L5.52222 1.89864L10.4095 1.89197L10.4087 1.30893C10.4078 0.942447 10.6794 0.667585 11.0414 0.666752C11.3952 0.665919 11.6749 0.940782 11.6757 1.30726ZM1.7679 6.38472L14.2247 6.36806V6.07654C14.1893 4.28577 13.2908 3.34624 11.6782 3.20631L11.679 3.84766C11.679 4.20581 11.4001 4.48984 11.0463 4.48984C10.6843 4.49067 10.412 4.20748 10.412 3.84932L10.4111 3.17466L5.52386 3.18133L5.52469 3.85516C5.52469 4.21414 5.25399 4.49733 4.89197 4.49733C4.52995 4.49817 4.25762 4.21581 4.25762 3.85682L4.25679 3.21548C2.65239 3.37623 1.76461 4.31909 1.76708 6.12568L1.7679 6.38472ZM10.6999 10.1703V10.1795C10.7082 10.5626 11.0208 10.8533 11.4001 10.845C11.7704 10.8358 12.0657 10.5185 12.0575 10.1353C12.0402 9.76886 11.7432 9.46984 11.3738 9.47068C10.9953 9.47901 10.6991 9.78718 10.6999 10.1703ZM11.3795 13.9101C11.0011 13.9018 10.6958 13.5861 10.695 13.203C10.6868 12.8198 10.9904 12.5025 11.3688 12.4933H11.3771C11.7638 12.4933 12.0773 12.809 12.0773 13.2005C12.0781 13.5919 11.7654 13.9093 11.3795 13.9101ZM7.31011 10.1837C7.32656 10.5668 7.64004 10.8658 8.01851 10.8492C8.38876 10.8317 8.68414 10.5152 8.66768 10.132C8.65863 9.7572 8.35421 9.46568 7.98396 9.46651C7.60548 9.48317 7.30928 9.80051 7.31011 10.1837ZM8.0218 13.8726C7.64333 13.8893 7.33068 13.5903 7.3134 13.2071C7.3134 12.824 7.60877 12.5075 7.98725 12.49C8.3575 12.4892 8.66275 12.7807 8.67097 13.1547C8.68825 13.5386 8.39205 13.8551 8.0218 13.8726ZM3.92028 10.2128C3.93673 10.5959 4.25021 10.8958 4.62869 10.8783C4.99894 10.8616 5.29431 10.5443 5.27703 10.1612C5.26881 9.78635 4.96438 9.49483 4.59331 9.49566C4.21483 9.51232 3.91946 9.82966 3.92028 10.2128ZM4.63198 13.8768C4.2535 13.8943 3.94085 13.5944 3.92357 13.2113C3.92275 12.8282 4.21895 12.5108 4.59742 12.4942C4.96767 12.4933 5.27292 12.7848 5.28115 13.1597C5.29842 13.5428 5.00305 13.8601 4.63198 13.8768Z" fill="white"/>
</svg>
