<svg width="146" height="90" viewBox="0 0 146 90" fill="none" xmlns="http://www.w3.org/2000/svg">
<g clip-path="url(#clip0_40_4373)">
<path d="M87.8806 27.4094C86.5972 27.4094 85.5583 26.3853 85.5583 25.1202C85.5583 23.8551 86.5972 22.8311 87.8806 22.8311H106V22.6804L82.8694 0.120208L65.0556 0.0900879L40 24.7889L64.9028 49.9395L84.5194 49.9997L106 27.4395V27.4094H87.8806Z" fill="#0A0A0A"/>
<path d="M70.9222 27.3795L64.3222 33.8855C64.3222 33.8855 55.1556 24.9699 55.1556 24.6386L64.3528 15.5723L71.5639 22.6807H88.0028L65.0556 0L40 24.6988C40 25.5723 64.9028 49.8494 64.9028 49.8494L87.6972 27.3795H70.9222Z" fill="#F7B314"/>
<path d="M101.6 -0.000244141C99.2164 -0.000244141 97.2609 1.89735 97.2609 4.27686C97.2609 6.62626 99.1859 8.55397 101.6 8.55397C103.983 8.55397 105.939 6.65638 105.939 4.27686C105.939 1.89735 103.983 -0.000244141 101.6 -0.000244141ZM101.6 8.16241C99.4303 8.16241 97.6581 6.41542 97.6581 4.27686C97.6581 2.13831 99.4303 0.391322 101.6 0.391322C103.769 0.391322 105.541 2.13831 105.541 4.27686C105.541 6.41542 103.769 8.16241 101.6 8.16241ZM103.28 5.99373V5.5118C103.28 5.2106 103.219 4.96964 103.066 4.75879C102.914 4.54795 102.7 4.42747 102.394 4.3371C102.669 4.24674 102.883 4.09614 103.036 3.8853C103.189 3.67445 103.28 3.43349 103.28 3.19253C103.28 2.74072 103.128 2.40939 102.853 2.16843C102.578 1.92747 102.15 1.80698 101.6 1.80698H99.8886V6.77686H100.286V4.54795H101.691C102.058 4.54795 102.333 4.63831 102.516 4.81903C102.73 4.99976 102.822 5.24072 102.822 5.54192V5.99373C102.822 6.14433 102.853 6.29494 102.883 6.44554C102.914 6.59614 102.975 6.71662 103.066 6.77686H103.494V6.6865C103.403 6.59614 103.341 6.50578 103.311 6.3853C103.28 6.26482 103.28 6.14433 103.28 5.99373ZM101.539 4.1865H100.286V2.16843H101.569C101.997 2.16843 102.303 2.25879 102.516 2.43951C102.73 2.62024 102.822 2.8612 102.822 3.19253C102.822 3.49373 102.73 3.7347 102.516 3.91542C102.333 4.09614 101.997 4.1865 101.539 4.1865Z" fill="#0A0A0A"/>
</g>
<path d="M14.3666 75.3622H11.7103C11.6346 74.9266 11.4949 74.5407 11.2913 74.2045C11.0877 73.8636 10.8344 73.5748 10.5314 73.3381C10.2283 73.1013 9.88269 72.9238 9.49443 72.8054C9.11091 72.6823 8.69661 72.6207 8.25153 72.6207C7.46081 72.6207 6.76005 72.8196 6.14926 73.2173C5.53846 73.6103 5.06024 74.188 4.7146 74.9503C4.36895 75.7079 4.19613 76.6335 4.19613 77.7273C4.19613 78.84 4.36895 79.7775 4.7146 80.5398C5.06498 81.2973 5.5432 81.8703 6.14926 82.2585C6.76005 82.642 7.45844 82.8338 8.24443 82.8338C8.68003 82.8338 9.08723 82.777 9.46602 82.6634C9.84954 82.545 10.1928 82.3722 10.4958 82.1449C10.8036 81.9176 11.0617 81.6383 11.27 81.3068C11.4831 80.9754 11.6298 80.5966 11.7103 80.1705L14.3666 80.1847C14.2672 80.8759 14.0517 81.5246 13.7203 82.1307C13.3936 82.7367 12.9651 83.2718 12.4348 83.7358C11.9045 84.1951 11.2842 84.5549 10.574 84.8153C9.86375 85.071 9.07539 85.1989 8.20892 85.1989C6.93051 85.1989 5.78941 84.9029 4.78562 84.3111C3.78183 83.7192 2.99111 82.8646 2.41346 81.7472C1.83581 80.6297 1.54698 79.2898 1.54698 77.7273C1.54698 76.16 1.83818 74.8201 2.42056 73.7074C3.00295 72.59 3.79604 71.7353 4.79983 71.1435C5.80361 70.5516 6.93998 70.2557 8.20892 70.2557C9.01858 70.2557 9.77142 70.3693 10.4674 70.5966C11.1635 70.8239 11.7837 71.1577 12.3282 71.598C12.8727 72.0336 13.3202 72.5687 13.6706 73.2031C14.0257 73.8329 14.2577 74.5526 14.3666 75.3622ZM21.2955 85.2131C20.2017 85.2131 19.2571 84.9858 18.4617 84.5312C17.671 84.072 17.0625 83.4233 16.6364 82.5852C16.2103 81.7424 15.9972 80.7505 15.9972 79.6094C15.9972 78.4872 16.2103 77.5024 16.6364 76.6548C17.0673 75.8026 17.6686 75.1397 18.4404 74.6662C19.2122 74.188 20.1189 73.9489 21.1606 73.9489C21.8329 73.9489 22.4674 74.0578 23.064 74.2756C23.6653 74.4886 24.1956 74.8201 24.6549 75.2699C25.1189 75.7197 25.4835 76.2926 25.7486 76.9886C26.0138 77.6799 26.1463 78.5038 26.1463 79.4602V80.2486H17.2046V78.5156H23.6819C23.6771 78.0232 23.5706 77.5852 23.3623 77.2017C23.1539 76.8134 22.8627 76.508 22.4887 76.2855C22.1194 76.063 21.6885 75.9517 21.1961 75.9517C20.6705 75.9517 20.2088 76.0795 19.8111 76.3352C19.4134 76.5862 19.1033 76.9176 18.8807 77.3295C18.6629 77.7367 18.5516 78.1842 18.5469 78.6719V80.1847C18.5469 80.8191 18.6629 81.3636 18.8949 81.8182C19.1269 82.268 19.4513 82.6136 19.8679 82.8551C20.2846 83.0919 20.7723 83.2102 21.331 83.2102C21.7051 83.2102 22.0436 83.1581 22.3466 83.054C22.6497 82.9451 22.9124 82.7865 23.135 82.5781C23.3575 82.3698 23.5256 82.1117 23.6392 81.804L26.0398 82.0739C25.8883 82.7083 25.5995 83.2623 25.1733 83.7358C24.7519 84.2045 24.2122 84.5691 23.554 84.8295C22.8959 85.0852 22.143 85.2131 21.2955 85.2131ZM30.6924 78.608V85H28.1214V74.0909H30.5788V75.9446H30.7066C30.9576 75.3338 31.3577 74.8485 31.9069 74.4886C32.4609 74.1288 33.1451 73.9489 33.9595 73.9489C34.7123 73.9489 35.3681 74.1098 35.9268 74.4318C36.4903 74.7538 36.9259 75.2202 37.2336 75.831C37.5461 76.4418 37.7 77.1828 37.6953 78.054V85H35.1243V78.4517C35.1243 77.7225 34.9349 77.152 34.5561 76.7401C34.182 76.3281 33.6636 76.1222 33.0007 76.1222C32.5509 76.1222 32.1508 76.2216 31.8004 76.4205C31.4548 76.6146 31.1825 76.8963 30.9836 77.2656C30.7895 77.6349 30.6924 78.0824 30.6924 78.608ZM44.1572 85.1918C43.3002 85.1918 42.5332 84.9716 41.8561 84.5312C41.179 84.0909 40.644 83.4517 40.251 82.6136C39.858 81.7756 39.6615 80.7576 39.6615 79.5597C39.6615 78.3475 39.8603 77.3248 40.2581 76.4915C40.6605 75.6534 41.2027 75.0213 41.8845 74.5952C42.5663 74.1643 43.3262 73.9489 44.1643 73.9489C44.8035 73.9489 45.3291 74.0578 45.741 74.2756C46.153 74.4886 46.4797 74.7467 46.7211 75.0497C46.9626 75.348 47.1496 75.6297 47.2822 75.8949H47.3887V70.4545H49.9669V85H47.4385V83.2812H47.2822C47.1496 83.5464 46.9579 83.8281 46.7069 84.1264C46.456 84.42 46.1245 84.6709 45.7126 84.8793C45.3007 85.0876 44.7822 85.1918 44.1572 85.1918ZM44.8745 83.0824C45.4191 83.0824 45.8831 82.9356 46.2666 82.642C46.6501 82.3437 46.9413 81.9295 47.1402 81.3991C47.339 80.8688 47.4385 80.2509 47.4385 79.5455C47.4385 78.84 47.339 78.2268 47.1402 77.706C46.946 77.1851 46.6572 76.7803 46.2737 76.4915C45.8949 76.2027 45.4285 76.0582 44.8745 76.0582C44.3016 76.0582 43.8234 76.2074 43.4399 76.5057C43.0564 76.804 42.7675 77.2159 42.5734 77.7415C42.3793 78.267 42.2822 78.8684 42.2822 79.5455C42.2822 80.2273 42.3793 80.8357 42.5734 81.3707C42.7723 81.901 43.0635 82.3201 43.447 82.6278C43.8352 82.9309 44.3111 83.0824 44.8745 83.0824ZM52.5066 85V74.0909H54.9995V75.9091H55.1131C55.312 75.2794 55.6529 74.794 56.1358 74.4531C56.6235 74.1075 57.1799 73.9347 57.8049 73.9347C57.9469 73.9347 58.1055 73.9418 58.2807 73.956C58.4606 73.9654 58.6098 73.982 58.7282 74.0057V76.3707C58.6193 76.3329 58.4464 76.2997 58.2097 76.2713C57.9777 76.2382 57.7528 76.2216 57.535 76.2216C57.0662 76.2216 56.6448 76.3234 56.2708 76.527C55.9015 76.7259 55.6103 77.0028 55.3972 77.358C55.1841 77.7131 55.0776 78.1226 55.0776 78.5866V85H52.5066ZM64.5456 85.2131C63.4802 85.2131 62.5569 84.9787 61.7757 84.5099C60.9944 84.0412 60.3884 83.3854 59.9575 82.5426C59.5314 81.6998 59.3183 80.715 59.3183 79.5881C59.3183 78.4612 59.5314 77.474 59.9575 76.6264C60.3884 75.7789 60.9944 75.1207 61.7757 74.652C62.5569 74.1832 63.4802 73.9489 64.5456 73.9489C65.6109 73.9489 66.5342 74.1832 67.3155 74.652C68.0967 75.1207 68.7004 75.7789 69.1265 76.6264C69.5574 77.474 69.7728 78.4612 69.7728 79.5881C69.7728 80.715 69.5574 81.6998 69.1265 82.5426C68.7004 83.3854 68.0967 84.0412 67.3155 84.5099C66.5342 84.9787 65.6109 85.2131 64.5456 85.2131ZM64.5598 83.1534C65.1374 83.1534 65.6204 82.9948 66.0086 82.6776C66.3969 82.3556 66.6857 81.9247 66.8751 81.3849C67.0692 80.8452 67.1663 80.2438 67.1663 79.581C67.1663 78.9134 67.0692 78.3097 66.8751 77.7699C66.6857 77.2254 66.3969 76.7921 66.0086 76.4702C65.6204 76.1482 65.1374 75.9872 64.5598 75.9872C63.9679 75.9872 63.4755 76.1482 63.0825 76.4702C62.6942 76.7921 62.403 77.2254 62.2089 77.7699C62.0195 78.3097 61.9248 78.9134 61.9248 79.581C61.9248 80.2438 62.0195 80.8452 62.2089 81.3849C62.403 81.9247 62.6942 82.3556 63.0825 82.6776C63.4755 82.9948 63.9679 83.1534 64.5598 83.1534ZM74.326 70.4545V85H71.755V70.4545H74.326ZM81.6444 85V70.4545H87.099C88.2164 70.4545 89.1539 70.6629 89.9115 71.0795C90.6738 71.4962 91.2491 72.0691 91.6373 72.7983C92.0303 73.5227 92.2268 74.3466 92.2268 75.2699C92.2268 76.2027 92.0303 77.0312 91.6373 77.7557C91.2443 78.4801 90.6643 79.0507 89.8973 79.4673C89.1302 79.8793 88.1856 80.0852 87.0635 80.0852H83.4484V77.919H86.7084C87.3618 77.919 87.8968 77.8054 88.3135 77.5781C88.7301 77.3509 89.0379 77.0384 89.2368 76.6406C89.4404 76.2429 89.5422 75.786 89.5422 75.2699C89.5422 74.7538 89.4404 74.2992 89.2368 73.9062C89.0379 73.5133 88.7278 73.2079 88.3064 72.9901C87.8897 72.7675 87.3523 72.6562 86.6941 72.6562H84.2794V85H81.6444ZM98.8752 85.2131C97.7814 85.2131 96.8368 84.9858 96.0414 84.5312C95.2507 84.072 94.6422 83.4233 94.2161 82.5852C93.79 81.7424 93.5769 80.7505 93.5769 79.6094C93.5769 78.4872 93.79 77.5024 94.2161 76.6548C94.647 75.8026 95.2483 75.1397 96.0201 74.6662C96.7918 74.188 97.6986 73.9489 98.7402 73.9489C99.4126 73.9489 100.047 74.0578 100.644 74.2756C101.245 74.4886 101.775 74.8201 102.235 75.2699C102.699 75.7197 103.063 76.2926 103.328 76.9886C103.593 77.6799 103.726 78.5038 103.726 79.4602V80.2486H94.7843V78.5156H101.262C101.257 78.0232 101.15 77.5852 100.942 77.2017C100.734 76.8134 100.442 76.508 100.068 76.2855C99.699 76.063 99.2682 75.9517 98.7757 75.9517C98.2502 75.9517 97.7885 76.0795 97.3908 76.3352C96.9931 76.5862 96.6829 76.9176 96.4604 77.3295C96.2426 77.7367 96.1313 78.1842 96.1266 78.6719V80.1847C96.1266 80.8191 96.2426 81.3636 96.4746 81.8182C96.7066 82.268 97.031 82.6136 97.4476 82.8551C97.8643 83.0919 98.352 83.2102 98.9107 83.2102C99.2847 83.2102 99.6233 83.1581 99.9263 83.054C100.229 82.9451 100.492 82.7865 100.715 82.5781C100.937 82.3698 101.105 82.1117 101.219 81.804L103.619 82.0739C103.468 82.7083 103.179 83.2623 102.753 83.7358C102.332 84.2045 101.792 84.5691 101.134 84.8295C100.476 85.0852 99.7227 85.2131 98.8752 85.2131ZM110.46 85.2131C109.394 85.2131 108.471 84.9787 107.69 84.5099C106.908 84.0412 106.302 83.3854 105.872 82.5426C105.445 81.6998 105.232 80.715 105.232 79.5881C105.232 78.4612 105.445 77.474 105.872 76.6264C106.302 75.7789 106.908 75.1207 107.69 74.652C108.471 74.1832 109.394 73.9489 110.46 73.9489C111.525 73.9489 112.448 74.1832 113.23 74.652C114.011 75.1207 114.614 75.7789 115.041 76.6264C115.471 77.474 115.687 78.4612 115.687 79.5881C115.687 80.715 115.471 81.6998 115.041 82.5426C114.614 83.3854 114.011 84.0412 113.23 84.5099C112.448 84.9787 111.525 85.2131 110.46 85.2131ZM110.474 83.1534C111.051 83.1534 111.534 82.9948 111.923 82.6776C112.311 82.3556 112.6 81.9247 112.789 81.3849C112.983 80.8452 113.08 80.2438 113.08 79.581C113.08 78.9134 112.983 78.3097 112.789 77.7699C112.6 77.2254 112.311 76.7921 111.923 76.4702C111.534 76.1482 111.051 75.9872 110.474 75.9872C109.882 75.9872 109.39 76.1482 108.997 76.4702C108.608 76.7921 108.317 77.2254 108.123 77.7699C107.934 78.3097 107.839 78.9134 107.839 79.581C107.839 80.2438 107.934 80.8452 108.123 81.3849C108.317 81.9247 108.608 82.3556 108.997 82.6776C109.39 82.9948 109.882 83.1534 110.474 83.1534ZM117.669 89.0909V74.0909H120.197V75.8949H120.347C120.479 75.6297 120.666 75.348 120.908 75.0497C121.149 74.7467 121.476 74.4886 121.888 74.2756C122.3 74.0578 122.825 73.9489 123.465 73.9489C124.307 73.9489 125.067 74.1643 125.744 74.5952C126.426 75.0213 126.966 75.6534 127.364 76.4915C127.766 77.3248 127.967 78.3475 127.967 79.5597C127.967 80.7576 127.771 81.7756 127.378 82.6136C126.985 83.4517 126.45 84.0909 125.773 84.5312C125.096 84.9716 124.329 85.1918 123.472 85.1918C122.847 85.1918 122.328 85.0876 121.916 84.8793C121.504 84.6709 121.173 84.42 120.922 84.1264C120.676 83.8281 120.484 83.5464 120.347 83.2812H120.24V89.0909H117.669ZM120.19 79.5455C120.19 80.2509 120.29 80.8688 120.489 81.3991C120.692 81.9295 120.983 82.3437 121.362 82.642C121.746 82.9356 122.21 83.0824 122.754 83.0824C123.322 83.0824 123.798 82.9309 124.182 82.6278C124.565 82.3201 124.854 81.901 125.048 81.3707C125.247 80.8357 125.347 80.2273 125.347 79.5455C125.347 78.8684 125.25 78.267 125.055 77.7415C124.861 77.2159 124.572 76.804 124.189 76.5057C123.805 76.2074 123.327 76.0582 122.754 76.0582C122.205 76.0582 121.739 76.2027 121.355 76.4915C120.972 76.7803 120.68 77.1851 120.482 77.706C120.287 78.2268 120.19 78.84 120.19 79.5455ZM132.54 70.4545V85H129.969V70.4545H132.54ZM139.813 85.2131C138.72 85.2131 137.775 84.9858 136.98 84.5312C136.189 84.072 135.581 83.4233 135.154 82.5852C134.728 81.7424 134.515 80.7505 134.515 79.6094C134.515 78.4872 134.728 77.5024 135.154 76.6548C135.585 75.8026 136.187 75.1397 136.958 74.6662C137.73 74.188 138.637 73.9489 139.679 73.9489C140.351 73.9489 140.985 74.0578 141.582 74.2756C142.183 74.4886 142.714 74.8201 143.173 75.2699C143.637 75.7197 144.001 76.2926 144.267 76.9886C144.532 77.6799 144.664 78.5038 144.664 79.4602V80.2486H135.723V78.5156H142.2C142.195 78.0232 142.089 77.5852 141.88 77.2017C141.672 76.8134 141.381 76.508 141.007 76.2855C140.637 76.063 140.206 75.9517 139.714 75.9517C139.188 75.9517 138.727 76.0795 138.329 76.3352C137.931 76.5862 137.621 76.9176 137.399 77.3295C137.181 77.7367 137.07 78.1842 137.065 78.6719V80.1847C137.065 80.8191 137.181 81.3636 137.413 81.8182C137.645 82.268 137.969 82.6136 138.386 82.8551C138.803 83.0919 139.29 83.2102 139.849 83.2102C140.223 83.2102 140.562 83.1581 140.865 83.054C141.168 82.9451 141.43 82.7865 141.653 82.5781C141.875 82.3698 142.044 82.1117 142.157 81.804L144.558 82.0739C144.406 82.7083 144.117 83.2623 143.691 83.7358C143.27 84.2045 142.73 84.5691 142.072 84.8295C141.414 85.0852 140.661 85.2131 139.813 85.2131Z" fill="#0A0A0A"/>
<defs>
<clipPath id="clip0_40_4373">
<rect width="66" height="50" fill="white" transform="translate(40)"/>
</clipPath>
</defs>
</svg>
