<svg width="20" height="20" viewBox="0 0 20 20" fill="none" xmlns="http://www.w3.org/2000/svg">
<path fill-rule="evenodd" clip-rule="evenodd" d="M3.78317 1.66667H6.59984C7.77484 1.66667 8.7165 2.62501 8.7165 3.80084V6.64167C8.7165 7.825 7.77484 8.775 6.59984 8.775H3.78317C2.6165 8.775 1.6665 7.825 1.6665 6.64167V3.80084C1.6665 2.62501 2.6165 1.66667 3.78317 1.66667ZM3.78317 11.2248H6.59984C7.77484 11.2248 8.7165 12.1756 8.7165 13.3589V16.1998C8.7165 17.3748 7.77484 18.3331 6.59984 18.3331H3.78317C2.6165 18.3331 1.6665 17.3748 1.6665 16.1998V13.3589C1.6665 12.1756 2.6165 11.2248 3.78317 11.2248ZM16.2166 1.66667H13.3999C12.2249 1.66667 11.2833 2.62501 11.2833 3.80084V6.64167C11.2833 7.825 12.2249 8.775 13.3999 8.775H16.2166C17.3833 8.775 18.3333 7.825 18.3333 6.64167V3.80084C18.3333 2.62501 17.3833 1.66667 16.2166 1.66667ZM13.3999 11.2248H16.2166C17.3833 11.2248 18.3333 12.1756 18.3333 13.3589V16.1998C18.3333 17.3748 17.3833 18.3331 16.2166 18.3331H13.3999C12.2249 18.3331 11.2833 17.3748 11.2833 16.1998V13.3589C11.2833 12.1756 12.2249 11.2248 13.3999 11.2248Z" fill="#F7B314"/>
</svg>
