<svg width="12" height="12" viewBox="0 0 12 12" fill="none" xmlns="http://www.w3.org/2000/svg">
<path d="M6.00002 8.38317C5.91113 8.38317 5.8278 8.36917 5.75002 8.34117C5.67224 8.31362 5.60002 8.2665 5.53335 8.19984L3.13335 5.79984C3.01113 5.67762 2.95002 5.52206 2.95002 5.33317C2.95002 5.14428 3.01113 4.98873 3.13335 4.8665C3.25558 4.74428 3.4138 4.68028 3.60802 4.6745C3.80269 4.66917 3.96113 4.72761 4.08335 4.84984L5.33335 6.09984V1.33317C5.33335 1.14428 5.39735 0.985837 5.52535 0.857837C5.65291 0.730282 5.81113 0.666504 6.00002 0.666504C6.18891 0.666504 6.34735 0.730282 6.47535 0.857837C6.60291 0.985837 6.66669 1.14428 6.66669 1.33317V6.09984L7.91669 4.84984C8.03891 4.72761 8.19735 4.66917 8.39202 4.6745C8.58624 4.68028 8.74446 4.74428 8.86669 4.8665C8.98891 4.98873 9.05002 5.14428 9.05002 5.33317C9.05002 5.52206 8.98891 5.67762 8.86669 5.79984L6.46669 8.19984C6.40002 8.2665 6.3278 8.31362 6.25002 8.34117C6.17224 8.36917 6.08891 8.38317 6.00002 8.38317ZM2.00002 11.3332C1.63335 11.3332 1.31958 11.2027 1.05869 10.9418C0.797354 10.6805 0.666687 10.3665 0.666687 9.99984V8.6665C0.666687 8.47762 0.730465 8.31917 0.85802 8.19117C0.98602 8.06361 1.14446 7.99984 1.33335 7.99984C1.52224 7.99984 1.68069 8.06361 1.80869 8.19117C1.93624 8.31917 2.00002 8.47762 2.00002 8.6665V9.99984H10V8.6665C10 8.47762 10.064 8.31917 10.192 8.19117C10.3196 8.06361 10.4778 7.99984 10.6667 7.99984C10.8556 7.99984 11.0138 8.06361 11.1414 8.19117C11.2694 8.31917 11.3334 8.47762 11.3334 8.6665V9.99984C11.3334 10.3665 11.2029 10.6805 10.942 10.9418C10.6807 11.2027 10.3667 11.3332 10 11.3332H2.00002Z" fill="#0A0A0A"/>
</svg>
